<svg width="103" height="27" viewBox="0 0 103 27" fill="none" xmlns="http://www.w3.org/2000/svg">
<path d="M17.088 25.36C17.088 25.7227 17.0773 25.9467 17.056 26.032C16.992 26.288 16.864 26.4267 16.672 26.448C16.5867 26.4693 15.264 26.448 12.704 26.384C12.3627 26.384 12.1813 26.1493 12.16 25.68C12.1173 25.1253 12.1067 24.144 12.128 22.736C12.128 21.7973 12.1387 20.5707 12.16 19.056C12.1813 17.6053 12.192 16.8267 12.192 16.72C12.192 16.272 12.1493 16.048 12.064 16.048C11.9573 16.048 11.8613 16.2293 11.776 16.592C11.6053 17.36 11.4027 18.768 11.168 20.816C10.8907 23.2693 10.7093 24.8053 10.624 25.424C10.5387 25.9573 10.336 26.256 10.016 26.32C9.71733 26.384 9.26933 26.416 8.672 26.416C7.712 26.3947 7.24267 26.384 7.264 26.384C7.072 26.384 6.912 26.0853 6.784 25.488C6.57067 24.4853 6.34667 22.768 6.112 20.336C5.856 18.0747 5.696 16.8053 5.632 16.528C5.52533 16.1013 5.408 15.888 5.28 15.888C5.19467 15.888 5.152 16.112 5.152 16.56C5.152 21.6587 5.16267 24.6347 5.184 25.488C5.20533 26.0427 5.04533 26.3413 4.704 26.384C4.704 26.384 3.456 26.384 0.96 26.384C0.618667 26.384 0.426667 26.0213 0.384 25.296C0.298667 24.0373 0.256 22.2453 0.256 19.92C0.256 17.2533 0.32 13.3493 0.448 8.208C0.554667 3.792 0.597333 1.38133 0.576 0.975998C0.554667 0.783999 0.565333 0.613333 0.608 0.463999C0.672 0.229333 0.789333 0.122666 0.96 0.143999C2.112 0.229333 3.328 0.250666 4.608 0.207998C4.82133 0.207998 5.01333 0.442665 5.184 0.911999C5.41867 1.57333 6.464 4.92267 8.32 10.96C8.49067 11.4933 8.62933 11.76 8.736 11.76C8.864 11.76 9.00267 11.4933 9.152 10.96C9.94133 8.44267 10.9547 5.072 12.192 0.848C12.32 0.399999 12.5653 0.186665 12.928 0.207998C12.928 0.207998 14.048 0.207998 16.288 0.207998C16.5867 0.207998 16.736 0.506665 16.736 1.104C16.8213 4.79467 16.9067 8.48533 16.992 12.176C17.12 18.2773 17.152 22.672 17.088 25.36ZM27.367 25.968C27.367 26.224 27.1963 26.3627 26.855 26.384C23.911 26.5333 21.2337 26.512 18.823 26.32C18.5883 26.2987 18.471 26.096 18.471 25.712L18.439 0.719999C18.439 0.485332 18.5563 0.367998 18.791 0.367998C20.4337 0.346665 23.0897 0.357332 26.759 0.4C27.1003 0.4 27.271 0.527999 27.271 0.783998C27.271 1.12533 27.271 1.70133 27.271 2.512C27.2497 3.51467 27.239 4.15467 27.239 4.432C27.239 4.688 27.1217 4.816 26.887 4.816C26.0337 4.816 24.807 4.816 23.207 4.816C22.887 4.816 22.727 4.93333 22.727 5.168C22.727 5.27467 22.7163 6.032 22.695 7.44C22.6737 8.63467 22.6737 9.53067 22.695 10.128C22.695 10.3627 22.823 10.5013 23.079 10.544C23.527 10.608 24.519 10.6187 26.055 10.576C26.3323 10.576 26.4817 10.704 26.503 10.96C26.5243 11.344 26.5137 12.0587 26.471 13.104C26.4283 14.32 26.407 15.0347 26.407 15.248C26.407 15.5467 26.2897 15.696 26.055 15.696C26.055 15.696 25.095 15.696 23.175 15.696C22.9617 15.696 22.8337 15.856 22.791 16.176C22.6843 17.072 22.663 18.768 22.727 21.264C22.727 21.5413 22.919 21.7013 23.303 21.744C24.135 21.7227 25.3083 21.7013 26.823 21.68C27.1643 21.68 27.335 21.8187 27.335 22.096C27.335 23.824 27.3457 25.1147 27.367 25.968ZM39.3823 4.176C39.3823 4.47467 39.2009 4.624 38.8383 4.624C38.6889 4.624 38.3689 4.61333 37.8783 4.592C37.4089 4.592 37.0249 4.592 36.7263 4.592C36.2783 4.592 36.0543 4.752 36.0543 5.072L36.1183 25.712C36.1183 26.0533 36.0009 26.2347 35.7663 26.256C34.9983 26.3627 33.7823 26.352 32.1183 26.224C31.8409 26.2027 31.7023 26.0213 31.7023 25.68L31.6703 5.04C31.6703 4.74133 31.5423 4.592 31.2863 4.592C29.7076 4.592 28.9183 4.592 28.9183 4.592C28.5769 4.57067 28.4062 4.42133 28.4062 4.144C28.4062 4.37867 28.3849 3.94133 28.3422 2.832C28.2996 2.10667 28.3209 1.54133 28.4062 1.136C28.4916 0.581333 28.6836 0.303999 28.9823 0.303999C31.6276 0.282666 34.9236 0.282666 38.8703 0.303999C39.1689 0.303999 39.3289 0.495999 39.3503 0.879999C39.3929 2.20267 39.4036 3.30133 39.3823 4.176ZM53.9295 26.256C53.9508 26.384 53.8548 26.448 53.6415 26.448C53.3428 26.448 52.7882 26.448 51.9775 26.448C51.1668 26.4267 50.4628 26.416 49.8655 26.416C49.6735 26.416 49.4282 25.7227 49.1295 24.336C48.9162 23.2907 48.7562 22.3947 48.6495 21.648C48.6282 21.4987 48.5108 21.424 48.2975 21.424C47.4655 21.424 47.0495 21.424 47.0495 21.424C46.9002 21.424 46.8042 21.4987 46.7615 21.648C46.5695 22.928 46.3135 24.4107 45.9935 26.096C45.9082 26.288 45.8122 26.384 45.7055 26.384H41.7695C41.4282 26.384 41.2895 26.256 41.3535 26C42.0788 21.648 42.8042 17.2853 43.5295 12.912C44.9588 4.50667 45.8122 0.293332 46.0895 0.271999C47.2415 0.207999 48.3935 0.207999 49.5455 0.271999C49.8015 0.293332 50.5908 4.51733 51.9135 12.944C52.5962 17.3813 53.2682 21.8187 53.9295 26.256ZM48.3615 17.392C48.0415 14.96 47.8388 13.744 47.7535 13.744C47.6468 13.744 47.5188 14.2667 47.3695 15.312C47.2842 15.9947 47.1988 16.688 47.1135 17.392C47.0922 17.456 47.1882 17.5093 47.4015 17.552C47.6362 17.5733 47.8495 17.5733 48.0415 17.552C48.2548 17.5307 48.3615 17.4773 48.3615 17.392ZM64.978 0.815998C64.978 2.24533 64.9673 3.33333 64.946 4.08C64.946 4.272 64.7753 4.38933 64.434 4.432C63.474 4.432 62.162 4.44267 60.498 4.464C60.242 4.48533 60.114 4.63467 60.114 4.912V10.544C60.114 10.864 60.2207 11.024 60.434 11.024C60.9033 11.0453 61.9807 11.024 63.666 10.96C63.9647 10.96 64.1247 11.0987 64.146 11.376C64.2313 12.2293 64.2313 13.6267 64.146 15.568C64.146 15.7813 64.0393 15.888 63.826 15.888C63.0367 15.8667 61.9273 15.8667 60.498 15.888C60.2633 15.9093 60.1353 16.048 60.114 16.304C60.0713 17.0507 60.0607 18.5333 60.082 20.752C60.1247 23.888 60.146 25.52 60.146 25.648C60.146 25.9253 59.9967 26.0747 59.698 26.096C58.226 26.2453 56.8607 26.256 55.602 26.128C55.3247 26.1067 55.186 25.9573 55.186 25.68C55.186 25.68 55.186 17.4027 55.186 0.848C55.186 0.527999 55.3567 0.367998 55.698 0.367998C56.6793 0.346665 58.226 0.346665 60.338 0.367998C63.1113 0.389332 64.498 0.4 64.498 0.4C64.818 0.4 64.978 0.538666 64.978 0.815998ZM75.9215 21.264C75.9215 24.848 74.2148 26.64 70.8015 26.64C69.0308 26.64 67.7615 26.192 66.9935 25.296C66.2682 24.464 65.9055 23.12 65.9055 21.264V6.448C65.9055 4.12267 66.3748 2.46933 67.3135 1.488C68.0815 0.677333 69.2442 0.271999 70.8015 0.271999C72.4655 0.271999 73.6815 0.623999 74.4495 1.328C75.4308 2.224 75.9215 3.80267 75.9215 6.064V21.264ZM71.8575 19.824V6.864C71.8575 5.60533 71.5588 4.976 70.9615 4.976C70.3002 4.976 69.9695 5.616 69.9695 6.896V19.856C69.9695 20.56 70.0442 21.008 70.1935 21.2C70.3428 21.3707 70.5988 21.456 70.9615 21.456C71.5588 21.456 71.8575 20.912 71.8575 19.824ZM88.4753 25.712C88.5819 26.1813 88.4753 26.4267 88.1553 26.448C87.7499 26.4907 86.5019 26.48 84.4113 26.416C84.1766 26.416 84.0379 26.128 83.9953 25.552C83.8886 24.1013 83.8353 22.4907 83.8353 20.72C83.8353 17.4987 83.2699 15.888 82.1393 15.888C81.9899 15.8453 81.8619 15.8453 81.7552 15.888C81.6059 15.952 81.5312 16.1867 81.5312 16.592C81.5312 19.9413 81.5206 22.8853 81.4993 25.424C81.4993 25.9787 81.3819 26.2667 81.1473 26.288C79.9953 26.416 78.8966 26.4373 77.8513 26.352C77.5953 26.3307 77.4672 26.0213 77.4672 25.424L77.5312 0.783998C77.5312 0.399998 77.7233 0.207998 78.1073 0.207998C79.2806 0.207998 80.8806 0.197332 82.9073 0.175999C84.2299 0.175999 85.3499 0.453332 86.2673 1.008C87.2699 1.62667 87.7713 2.448 87.7713 3.472L87.7393 9.776C87.7393 10.8213 87.4299 11.7173 86.8113 12.464C86.3846 12.9973 85.9046 13.36 85.3713 13.552C85.2006 13.616 85.1153 13.68 85.1153 13.744C85.1153 13.7867 85.2006 13.84 85.3713 13.904C85.7766 14.032 86.2033 14.2987 86.6513 14.704C87.6539 15.5787 88.1553 17.7013 88.1553 21.072C88.1553 23.2267 88.2619 24.7733 88.4753 25.712ZM83.8673 6.192C83.8673 4.784 83.3979 4.112 82.4593 4.176C82.2459 4.19733 82.0859 4.208 81.9793 4.208C81.7873 4.208 81.6913 4.38933 81.6913 4.752C81.6913 4.752 81.6913 6.62933 81.6913 10.384C81.6913 10.9813 81.8406 11.2907 82.1393 11.312C82.2459 11.3333 82.3739 11.3333 82.5233 11.312C82.9926 11.312 83.3126 11.0773 83.4833 10.608C83.7393 9.92533 83.8673 8.45333 83.8673 6.192ZM102.711 26.256C102.732 26.384 102.636 26.448 102.423 26.448C102.124 26.448 101.569 26.448 100.759 26.448C99.9481 26.4267 99.2441 26.416 98.6468 26.416C98.4548 26.416 98.2094 25.7227 97.9108 24.336C97.6974 23.2907 97.5374 22.3947 97.4308 21.648C97.4094 21.4987 97.2921 21.424 97.0788 21.424C96.2468 21.424 95.8308 21.424 95.8308 21.424C95.6814 21.424 95.5854 21.4987 95.5428 21.648C95.3508 22.928 95.0948 24.4107 94.7748 26.096C94.6894 26.288 94.5934 26.384 94.4868 26.384H90.5508C90.2094 26.384 90.0708 26.256 90.1348 26C90.8601 21.648 91.5854 17.2853 92.3108 12.912C93.7401 4.50667 94.5934 0.293332 94.8708 0.271999C96.0228 0.207999 97.1748 0.207999 98.3268 0.271999C98.5828 0.293332 99.3721 4.51733 100.695 12.944C101.377 17.3813 102.049 21.8187 102.711 26.256ZM97.1428 17.392C96.8228 14.96 96.6201 13.744 96.5348 13.744C96.4281 13.744 96.3001 14.2667 96.1508 15.312C96.0654 15.9947 95.9801 16.688 95.8948 17.392C95.8734 17.456 95.9694 17.5093 96.1828 17.552C96.4174 17.5733 96.6308 17.5733 96.8228 17.552C97.0361 17.5307 97.1428 17.4773 97.1428 17.392Z" fill="#2764FF"/>
</svg>
