<svg width="400" height="47" viewBox="0 0 400 47" fill="none" xmlns="http://www.w3.org/2000/svg">
<rect width="200" height="47" fill="url(#paint0_linear_579_1189)"/>
<rect width="200" height="47" transform="matrix(-1 0 0 1 400 0)" fill="url(#paint1_linear_579_1189)"/>
<path d="M131.466 31V19.08H133.226L137.706 25.288H136.826L141.226 19.08H142.986V31H141.114V21.304L141.818 21.496L137.322 27.64H137.13L132.73 21.496L133.354 21.304V31H131.466ZM145.451 31V19.08H147.339V31H145.451ZM149.81 31V19.08H151.33L158.018 28.312L157.298 28.424V19.08H159.17V31H157.65L151.01 21.704L151.698 21.576V31H149.81ZM160.582 31L164.774 19.08H167.11L171.302 31H169.286L168.374 28.328H163.526L162.598 31H160.582ZM164.07 26.648H167.798L165.686 20.408H166.214L164.07 26.648ZM174.032 31V20.76H170.864V19.08H179.024V20.76H175.904V31H174.032ZM183.232 31V19.08H187.136C188.373 19.08 189.445 19.3307 190.352 19.832C191.269 20.3227 191.979 21.016 192.48 21.912C192.981 22.808 193.232 23.848 193.232 25.032C193.232 26.2053 192.981 27.2453 192.48 28.152C191.979 29.048 191.269 29.7467 190.352 30.248C189.445 30.7493 188.373 31 187.136 31H183.232ZM185.12 29.32H187.168C188.011 29.32 188.741 29.144 189.36 28.792C189.989 28.44 190.475 27.944 190.816 27.304C191.157 26.664 191.328 25.9067 191.328 25.032C191.328 24.1573 191.152 23.4053 190.8 22.776C190.459 22.136 189.979 21.64 189.36 21.288C188.741 20.936 188.011 20.76 187.168 20.76H185.12V29.32ZM193.551 31L197.743 19.08H200.079L204.271 31H202.255L201.343 28.328H196.495L195.567 31H193.551ZM197.039 26.648H200.767L198.655 20.408H199.183L197.039 26.648ZM205.685 31V19.08H207.205L213.893 28.312L213.173 28.424V19.08H215.045V31H213.525L206.885 21.704L207.573 21.576V31H205.685ZM220.31 31V19.08H225.334C226.081 19.08 226.726 19.2133 227.27 19.48C227.814 19.736 228.23 20.1093 228.518 20.6C228.806 21.08 228.95 21.6507 228.95 22.312C228.95 22.888 228.801 23.416 228.502 23.896C228.214 24.3653 227.761 24.7387 227.142 25.016V24.216C227.686 24.4293 228.129 24.7013 228.47 25.032C228.811 25.352 229.057 25.7147 229.206 26.12C229.366 26.5253 229.446 26.952 229.446 27.4C229.446 28.52 229.078 29.4 228.342 30.04C227.617 30.68 226.619 31 225.35 31H220.31ZM222.198 29.32H225.494C226.123 29.32 226.625 29.1493 226.998 28.808C227.371 28.456 227.558 27.992 227.558 27.416C227.558 26.8293 227.371 26.3653 226.998 26.024C226.625 25.672 226.123 25.496 225.494 25.496H222.198V29.32ZM222.198 23.832H225.382C225.894 23.832 226.305 23.688 226.614 23.4C226.923 23.1013 227.078 22.712 227.078 22.232C227.078 21.752 226.923 21.3787 226.614 21.112C226.305 20.8453 225.894 20.712 225.382 20.712H222.198V23.832ZM230.332 31L234.524 19.08H236.86L241.052 31H239.036L238.124 28.328H233.276L232.348 31H230.332ZM233.82 26.648H237.548L235.436 20.408H235.964L233.82 26.648ZM242.466 31V19.08H244.354V25.544L243.858 25.352L249.25 19.08H251.602L246.834 24.664L246.93 23.32L251.794 31H249.57L246.082 25.544L244.354 27.56V31H242.466ZM252.145 31L256.337 19.08H258.673L262.865 31H260.849L259.937 28.328H255.089L254.161 31H252.145ZM255.633 26.648H259.361L257.249 20.408H257.777L255.633 26.648ZM265.594 31V20.76H262.426V19.08H270.586V20.76H267.466V31H265.594Z" fill="white"/>
<defs>
<linearGradient id="paint0_linear_579_1189" x1="161.311" y1="23.5959" x2="2.82608" y2="23.5959" gradientUnits="userSpaceOnUse">
<stop stop-color="#2764FF"/>
<stop offset="1" stop-color="#2764FF" stop-opacity="0"/>
</linearGradient>
<linearGradient id="paint1_linear_579_1189" x1="161.311" y1="23.5959" x2="2.82608" y2="23.5959" gradientUnits="userSpaceOnUse">
<stop stop-color="#2764FF"/>
<stop offset="1" stop-color="#2764FF" stop-opacity="0"/>
</linearGradient>
</defs>
</svg>
