<svg width="32" height="32" viewBox="0 0 32 32" fill="none" xmlns="http://www.w3.org/2000/svg">
<path d="M7.9999 17.6C7.57556 17.6 7.16859 17.4315 6.86853 17.1314C6.56847 16.8313 6.3999 16.4244 6.3999 16C6.3999 15.5757 6.56847 15.1687 6.86853 14.8687C7.16859 14.5686 7.57556 14.4 7.9999 14.4H23.9999C24.4243 14.4 24.8312 14.5686 25.1313 14.8687C25.4313 15.1687 25.5999 15.5757 25.5999 16C25.5999 16.4244 25.4313 16.8313 25.1313 17.1314C24.8312 17.4315 24.4243 17.6 23.9999 17.6H7.9999Z" fill="white"/>
<path d="M14.3999 8.00002C14.3999 7.57568 14.5685 7.16871 14.8685 6.86865C15.1686 6.5686 15.5756 6.40002 15.9999 6.40002C16.4242 6.40002 16.8312 6.5686 17.1313 6.86865C17.4313 7.16871 17.5999 7.57568 17.5999 8.00002V24C17.5999 24.4244 17.4313 24.8313 17.1313 25.1314C16.8312 25.4315 16.4242 25.6 15.9999 25.6C15.5756 25.6 15.1686 25.4315 14.8685 25.1314C14.5685 24.8313 14.3999 24.4244 14.3999 24V8.00002Z" fill="white"/>
</svg>
