<svg width="28" height="28" viewBox="0 0 28 28" fill="none" xmlns="http://www.w3.org/2000/svg">
<path d="M15.1678 23.2612C19.7718 22.687 23.3345 18.7596 23.3345 14C23.3345 8.84538 19.1558 4.66671 14.0012 4.66671C8.84648 4.66671 4.66781 8.84538 4.66781 14C4.66781 18.7596 8.23045 22.687 12.8345 23.2612V16.3334H10.5011V14H12.8345V12.0701C12.8345 10.51 12.9969 9.94426 13.302 9.37389C13.6069 8.80352 14.0546 8.35589 14.625 8.05086C15.0715 7.81209 15.6253 7.66798 16.5931 7.60617C16.9772 7.58164 17.4744 7.61293 18.0845 7.70004V9.91671H17.5012C16.431 9.91671 15.9894 9.96725 15.7254 10.1084C15.5617 10.196 15.4471 10.3106 15.3595 10.4743C15.2183 10.7383 15.1678 11 15.1678 12.0701V14H18.0845L17.5012 16.3334H15.1678V23.2612ZM14.0012 25.6667C7.55782 25.6667 2.33447 20.4433 2.33447 14C2.33447 7.55672 7.55782 2.33337 14.0012 2.33337C20.4444 2.33337 25.6678 7.55672 25.6678 14C25.6678 20.4433 20.4444 25.6667 14.0012 25.6667Z" fill="#2764FF"/>
</svg>
