<svg width="28" height="28" viewBox="0 0 28 28" fill="none" xmlns="http://www.w3.org/2000/svg">
<path d="M17.9083 6.47481C16.0629 6.47481 14.5585 7.9542 14.5256 9.79576L14.4928 11.6333C14.4859 12.0199 14.1669 12.3276 13.7804 12.3207C13.7529 12.3203 13.7255 12.3182 13.6983 12.3144L11.8773 12.0661C9.48157 11.7394 7.18539 10.6367 4.98259 8.80123C4.28496 12.6625 5.64675 15.3382 8.92907 17.4017L10.9672 18.683C11.2945 18.8888 11.3931 19.321 11.1873 19.6482C11.1401 19.7232 11.0792 19.7886 11.0076 19.8408L9.15069 21.1976C10.2548 21.267 11.3044 21.2186 12.1743 21.045C17.6781 19.9465 21.3381 15.8046 21.3381 8.97269C21.3381 8.41492 20.1571 6.47481 17.9083 6.47481ZM12.1926 9.75415C12.2481 6.6449 14.7858 4.14148 17.9083 4.14148C19.4988 4.14148 20.9377 4.79106 21.974 5.83939C22.804 5.83315 23.5101 6.04298 25.0875 5.08605C24.6976 6.99981 24.5041 7.83044 23.6714 8.97269C23.6714 17.8878 18.1915 22.2235 12.6309 23.3331C8.81857 24.0939 3.27429 22.8448 1.68628 21.1848C2.49528 21.1227 5.78591 20.7688 7.68719 19.3771C6.07835 18.3148 -0.324985 14.5459 3.88242 4.41724C5.85814 6.72335 7.86105 8.29307 9.89117 9.12644C11.2415 9.68074 11.5732 9.66967 12.1926 9.75415Z" fill="#2764FF"/>
</svg>
